<svg id="Слой_1" data-name="Слой 1" xmlns="http://www.w3.org/2000/svg" viewBox="0 0 934.95 380.03"><defs><style>.cls-1{fill:none;stroke:#000;stroke-miterlimit:10;stroke-width:34px;}</style></defs><path d="M824.5,535.5c-52,2.19-104,3.91-156.1,4.26-13,0-26,0-39.09-.47-3.26-.14-6.53-.3-9.8-.55-1.64-.13-3.27-.27-4.92-.46a43.86,43.86,0,0,1-5-.84,11.32,11.32,0,0,1-1.32-.39c-.48-.15-.8-.32-1.2-.48-.77-.31-1.52-.66-2.28-1-1.51-.69-3-1.43-4.46-2.21a88.52,88.52,0,0,1-8.48-5.18A91.39,91.39,0,0,1,565,499.26,110.17,110.17,0,0,1,551.7,462a155,155,0,0,1-2-19.69c0-3.29-.16-6.59,0-9.88s.28-6.58.49-9.86A103.89,103.89,0,0,1,553.49,403a115.45,115.45,0,0,1,6.81-18.7A129.29,129.29,0,0,1,570.16,367a139.21,139.21,0,0,1,12.38-15.54,144.43,144.43,0,0,1,30.69-25.06,146.48,146.48,0,0,1,115-16.45A166.6,166.6,0,0,1,765,324.79l-4.49,1.94c1-3.5,2-6.7,3.22-10s2.45-6.45,3.8-9.62q4-9.53,9-18.61a228.8,228.8,0,0,1,22.75-34.42A215.44,215.44,0,0,1,828,224.48a208.33,208.33,0,0,1,34.08-23.39q9.1-4.93,18.61-9c6.36-2.66,12.82-5.09,19.39-7.19s13.21-3.93,19.95-5.38c3.34-.81,6.74-1.38,10.11-2.06,1.69-.32,3.4-.56,5.09-.84s3.39-.58,5.1-.78c27.28-3.74,54.95-3.32,82.13,0,13.61,1.66,27.07,4.08,40.43,6.92s26.63,6.26,39.72,10.31c26.11,8.17,51.64,19,74.73,34.12,2.89,1.86,5.7,3.87,8.52,5.86s5.53,4.13,8.2,6.32a184,184,0,0,1,15.36,13.93,154.11,154.11,0,0,1,25,33.14A138.55,138.55,0,0,1,1249,325.35a133.25,133.25,0,0,1,2.65,20.68q.26,5.22.05,10.47c-.08,1.74-.18,3.49-.35,5.24s-.36,3.45-.7,5.37l-4.18-3.6c6.65-2.25,13.22-4.12,19.9-5.88s13.36-3.3,20.11-4.68a351.36,351.36,0,0,1,40.88-6,252.19,252.19,0,0,1,41.41-.28,167.12,167.12,0,0,1,40.77,8.1A112.07,112.07,0,0,1,1446,375a101.09,101.09,0,0,1,25.5,33,141.6,141.6,0,0,1,12.16,39.76,89.64,89.64,0,0,1,.56,21,65.11,65.11,0,0,1-5.31,20.42A60.94,60.94,0,0,1,1467,506.67a76.21,76.21,0,0,1-16.6,12.82c-12.11,7-25.49,11.22-39,13.92a197.77,197.77,0,0,1-41.1,3.59l-41-.29q-81.93-.53-163.88-1.21,81.95-.79,163.92-1.21l41-.24a197,197,0,0,0,40.34-4.06c13.21-2.78,26.2-7,37.72-13.85a71.82,71.82,0,0,0,15.62-12.29A56.72,56.72,0,0,0,1475,487.49a60.92,60.92,0,0,0,4.77-19.11,85,85,0,0,0-.73-19.89,128.47,128.47,0,0,0-4.61-19.55,125.66,125.66,0,0,0-7.39-18.67,95.92,95.92,0,0,0-24.43-31.21,106.63,106.63,0,0,0-34.88-19,161.68,161.68,0,0,0-39.45-7.55,254.18,254.18,0,0,0-40.45.49,344.94,344.94,0,0,0-40.14,6q-9.95,2.08-19.77,4.69c-6.52,1.74-13.09,3.65-19.37,5.8l-5.12,1.76.94-5.36c.25-1.42.45-3.13.6-4.73s.24-3.27.3-4.91c.12-3.29.09-6.6-.08-9.9a126.65,126.65,0,0,0-2.61-19.66,131.93,131.93,0,0,0-14-37,147.88,147.88,0,0,0-24-31.67,175.87,175.87,0,0,0-14.82-13.39c-2.57-2.11-5.25-4.1-7.93-6.1s-5.44-3.86-8.26-5.66c-22.4-14.65-47.38-25.22-73-33.2-12.86-4-25.93-7.29-39.12-10.1s-26.48-5.17-39.83-6.82c-26.69-3.31-53.77-3.74-80.33-.13-1.67.19-3.31.5-5,.75s-3.31.5-5,.81c-3.28.66-6.58,1.21-9.83,2-6.55,1.39-13,3.22-19.38,5.19s-12.63,4.37-18.79,6.94-12.16,5.54-18,8.72a205,205,0,0,0-61,51.17,222.49,222.49,0,0,0-22.25,33.35q-4.8,8.82-8.77,18-2,4.61-3.71,9.3c-1.13,3.11-2.24,6.34-3.08,9.38l-1.06,3.84-3.43-1.9a160.71,160.71,0,0,0-35.38-14.44,144,144,0,0,0-37.79-5.1A141.13,141.13,0,0,0,616,330.94a139.13,139.13,0,0,0-29.75,24,135.06,135.06,0,0,0-12,14.88,124.83,124.83,0,0,0-9.58,16.53,104.63,104.63,0,0,0-10,36.65c-.24,3.2-.51,6.41-.57,9.62S554,439,554,442.22a151.1,151.1,0,0,0,1.74,19.13,106.15,106.15,0,0,0,12.47,36,88.84,88.84,0,0,0,25.55,28.09,86,86,0,0,0,8.1,5.09c1.4.76,2.82,1.5,4.26,2.18.72.33,1.44.68,2.17,1a10.52,10.52,0,0,0,1.06.44,6.46,6.46,0,0,0,1,.31,38.45,38.45,0,0,0,4.61.83c1.58.21,3.18.37,4.78.52,3.22.28,6.45.49,9.69.66,12.95.65,26,.85,39,1,26,.21,52,0,78.05-.43S798.48,536.17,824.5,535.5Z" transform="translate(-549.64 -173.16)"/><path d="M1027.22,519.19l-34,34-34-34a34,34,0,0,1,68,0Z" transform="translate(-549.64 -173.16)"/><path class="cls-1" d="M904.22,465.19s35.62-40.06,89-39.56,93,45.5,93,45.5" transform="translate(-549.64 -173.16)"/><path class="cls-1" d="M843.74,417.67s71-73,150-73,148.51,72,148.51,72" transform="translate(-549.64 -173.16)"/></svg>